# xmcd CD database file
#
# Track frame offsets:
#	150
#	21847
#	48242
#	59298
#	92726
#	124973
#	145020
#	178905
#	195864
#	215333
#	232598
#	253581
#
# Disc length: 3808 seconds
#
# Revision: 0
# Processed by: cddbd v1.5.2PL0 Copyright (c) Steve Scherf et al.
# Submitted via: CDex 1.51
#
DISCID=9c0ede0c
DTITLE=John Coltrane - Giant Steps
DYEAR=1959
DGENRE=Jazz
TTITLE0=Giant Steps
TTITLE1=Cousin Mary
TTITLE2=Countdown
TTITLE3=Spiral
TTITLE4=Syeeda's Song Flute
TTITLE5=Naima
TTITLE6=Mr. P.C.
TTITLE7=Giant Steps [Alternate Take]
TTITLE8=Naima [Alternate Take]
TTITLE9=Cousin Mary [Alternate Take]
TTITLE10=Countdown [Alternate Take]
TTITLE11=Syeeda's Song Flute [Alternate Take]
EXTD=YEAR: 1959
EXTT0=
EXTT1=
EXTT2=
EXTT3=
EXTT4=
EXTT5=
EXTT6=
EXTT7=
EXTT8=
EXTT9=
EXTT10=
EXTT11=
PLAYORDER=
